<svg id="Layer_1" data-name="Layer 1" xmlns="http://www.w3.org/2000/svg" viewBox="0 0 283.46 249.09"><defs><style>.cls-1{fill:#F1BE7A;}</style></defs><title>university-of-sussex</title><path class="cls-1" d="M20.72,189.31c0,3.26,0,7-4.2,9.55a12.51,12.51,0,0,1-6.16,1.52c-1.79,0-5.85-.35-8-2.85C.13,194.85,0,192.35,0,189.71V170.16H5.49v19.15c0,1.74.22,3.71,1.3,4.82A6,6,0,0,0,11,195.69c1.7,0,3.62-.67,4.42-1.83a8.08,8.08,0,0,0,1-4.55V170.16h4.29Z"/><path class="cls-1" d="M54.73,199.94H49.82l-11.65-19c-.31-.5-1.38-2.77-1.65-3.31v22.33H32.23V170.16h5.94L48.62,187.7c.09.23.8,1.52,1.83,3.49v-21h4.28Z"/><path class="cls-1" d="M68,199.94V170.16h5.36v29.78Z"/><path class="cls-1" d="M92.59,199.94l-9.2-29.78h5.68L95.9,193l7-22.81h4.47L98,199.94Z"/><path class="cls-1" d="M117.37,199.94V170.16h19.15v4.42H122.73v8.08H133.8V187H122.73v8.35h14v4.6Z"/><path class="cls-1" d="M165.36,199.94l-4.64-12.24h-7.55v12.24h-5.35V170.16h12.9c3.7,0,5.94.71,7.77,2.32a8.26,8.26,0,0,1,2.68,6.43,7.93,7.93,0,0,1-5.36,7.9L171,199.94Zm-12.19-16.52h6.7c2.63,0,5.72-.9,5.72-4.6,0-2.23-1.48-4.38-5.27-4.38h-7.15Z"/><path class="cls-1" d="M184.2,191.63a4.82,4.82,0,0,0,3.48,3.84,11.48,11.48,0,0,0,3.71.58c5,0,5.94-2.59,5.94-3.93,0-2.81-2.33-3.52-3.66-3.88l-6.66-1.7c-4.33-1.11-6.43-4.15-6.43-7.95,0-5.62,4.56-8.88,10.54-8.88a13,13,0,0,1,8.17,2.59,6.75,6.75,0,0,1,2.5,3.84l-5.09,1.29c-.36-1-1.25-3.39-5.49-3.39s-5.13,2.19-5.13,3.71c0,2.32,2.63,3.17,4.15,3.57l5,1.25c2.55.67,7.73,2.1,7.73,8.48,0,5.89-5.05,9.33-11.83,9.33a14.29,14.29,0,0,1-9.16-2.81,9,9,0,0,1-3-4.82Z"/><path class="cls-1" d="M214.29,199.94V170.16h5.36v29.78Z"/><path class="cls-1" d="M237.55,199.94V174.76h-7.9v-4.6h21.56v4.6h-7.9v25.18Z"/><path class="cls-1" d="M268.15,199.94V187.39L258,170.16h6.47l7.05,12.27,6.75-12.27h5.17l-9.64,17.23v12.55Z"/><path class="cls-1" d="M26,249.09c-9.38,0-12.55-8.71-12.55-15.45,0-8,4.56-15.23,12.77-15.23,8.4,0,12.55,7.33,12.55,15.32C38.8,242.83,33.84,249.09,26,249.09ZM31.52,226a5.55,5.55,0,0,0-5.36-3.26c-5.62,0-6.87,5.76-6.87,11.08,0,3.52.58,10.93,6.78,10.93a6.29,6.29,0,0,0,5.59-3.43c.71-1.43,1.33-3.4,1.33-7.64A18.82,18.82,0,0,0,31.52,226Z"/><path class="cls-1" d="M47.77,248.64V218.86h18.8v4.6H53.26v8.17H63.75v4.46H53.26v12.55Z"/><path class="cls-1" d="M91.3,240.34a4.8,4.8,0,0,0,3.48,3.83,11.21,11.21,0,0,0,3.71.58c5,0,5.94-2.58,5.94-3.92,0-2.82-2.33-3.53-3.67-3.89l-6.65-1.7c-4.33-1.11-6.43-4.15-6.43-7.94,0-5.63,4.56-8.89,10.54-8.89a13,13,0,0,1,8.17,2.59,6.75,6.75,0,0,1,2.5,3.84l-5.09,1.3c-.36-1-1.25-3.4-5.49-3.4s-5.14,2.19-5.14,3.71c0,2.32,2.64,3.17,4.16,3.57l5,1.25c2.55.67,7.73,2.1,7.73,8.48,0,5.9-5,9.34-11.84,9.34a14.23,14.23,0,0,1-9.15-2.82,8.94,8.94,0,0,1-3-4.82Z"/><path class="cls-1" d="M140.45,238c0,3.26,0,7-4.19,9.56a12.53,12.53,0,0,1-6.16,1.52c-1.79,0-5.85-.36-8-2.86-2.23-2.68-2.36-5.18-2.36-7.81V218.86h5.49V238c0,1.74.22,3.71,1.29,4.82a6,6,0,0,0,4.2,1.57c1.7,0,3.62-.67,4.42-1.83a8.19,8.19,0,0,0,1-4.56V218.86h4.28Z"/><path class="cls-1" d="M153.18,240.34a4.78,4.78,0,0,0,3.48,3.83,11.12,11.12,0,0,0,3.7.58c5,0,5.94-2.58,5.94-3.92,0-2.82-2.32-3.53-3.66-3.89l-6.65-1.7c-4.33-1.11-6.43-4.15-6.43-7.94,0-5.63,4.55-8.89,10.54-8.89a13.06,13.06,0,0,1,8.17,2.59,6.8,6.8,0,0,1,2.5,3.84l-5.09,1.3c-.36-1-1.25-3.4-5.5-3.4-4.1,0-5.13,2.19-5.13,3.71,0,2.32,2.63,3.17,4.15,3.57l5.05,1.25c2.54.67,7.72,2.1,7.72,8.48,0,5.9-5,9.34-11.83,9.34a14.21,14.21,0,0,1-9.15-2.82,8.88,8.88,0,0,1-3-4.82Z"/><path class="cls-1" d="M183.58,240.34a4.8,4.8,0,0,0,3.48,3.83,11.14,11.14,0,0,0,3.71.58c4.95,0,5.93-2.58,5.93-3.92,0-2.82-2.32-3.53-3.66-3.89l-6.65-1.7c-4.33-1.11-6.43-4.15-6.43-7.94,0-5.63,4.56-8.89,10.54-8.89a13,13,0,0,1,8.17,2.59,6.8,6.8,0,0,1,2.5,3.84l-5.09,1.3c-.36-1-1.25-3.4-5.49-3.4s-5.14,2.19-5.14,3.71c0,2.32,2.64,3.17,4.16,3.57l5,1.25c2.55.67,7.72,2.1,7.72,8.48,0,5.9-5,9.34-11.83,9.34a14.23,14.23,0,0,1-9.15-2.82,8.94,8.94,0,0,1-3-4.82Z"/><path class="cls-1" d="M212.11,248.64V218.86h19.15v4.42h-13.8v8.08h11.08v4.33H217.46V244h14v4.6Z"/><path class="cls-1" d="M258.31,248.64l-6.56-11.74-7,11.74h-5l9.47-15.54-8.13-14.24h6.25l5.49,9.91,5.81-9.91h5l-8.3,13.57,9.19,16.21Z"/><path class="cls-1" d="M38,80.54c0,31.5,13.87,49.34,44.19,49.34,21.9,0,38.89-12.65,47.05-32.42.13-.22.2-.36.2-.36s.07.2.13.33C139.83,117.5,161.4,130,191.4,130c31.65,0,56.6-16.37,56.6-40.32,0-17.3-10.95-28-33.18-38-3.32-1.49-10-4.62-13.14-6.08C190.2,40.05,183.5,35.06,183.5,24.68c0-11,9.75-18.3,22.63-18.3,20.3,0,28.33,15.21,34,31.53h5L242.49,2h-3.71s-.2.22-.47.57c-2.72,3.29-5.77,3.26-11.35,1.36A65.63,65.63,0,0,0,205.66,0c-24.49,0-42.73,15.37-42.73,34.92,0,16.48,9.88,27.07,28.86,35.71,2.66,1.22,9.23,4.32,12.68,6,11.08,5.26,20.24,10.78,20.24,22.64,0,15.67-16.06,24.17-33.38,24.17-27.67,0-43.34-18-43.34-48.74V3H99.82V7.93c.53,0,1.06.05,1.59.08,18.65,1.66,21,4.89,21,24.09l-.07,41.73c0,29.6-12,47-32.25,47-18.45,0-25-14.17-25-38.81L65,3H16.87V7.93c.26,0,.73.05,1.19.08C35.38,9.67,38,12,38,31.69Z"/></svg>