<svg xmlns="http://www.w3.org/2000/svg" xml:space="preserve" width="434.66666" height="192" viewBox="0 0 434.66666 192"><defs><clipPath id="a" clipPathUnits="userSpaceOnUse"><path d="M0 144h326V0H0Z"/></clipPath></defs><g clip-path="url(#a)" transform="matrix(1.33333 0 0 -1.33333 0 192)"><path d="M0 0h-19.819v19.286H0c7.245 0 10.656-3.197 10.656-9.592C10.656 3.837 7.245 0 0 0m-19.819 46.668H-.854c6.501 0 9.165-2.452 9.165-7.139 0-4.154-2.238-7.032-8.418-7.032h-19.712Zm35.375-20.457c4.899 2.983 7.884 8.097 7.884 14.492 0 12.786-9.163 19.709-23.654 19.709h-34.201V-14.17H-.533c15.981 0 26.53 8.416 26.53 24.081 0 8.203-4.476 13.636-10.441 16.3" style="fill:#FFFFFF;fill-opacity:1;fill-rule:nonzero;stroke:none" transform="translate(289.949 51.492)"/><path d="M0 0v74.584h-14.703V43.045c0-4.154.212-13.531.212-16.302-.957 1.918-3.407 5.649-5.221 8.418l-26.423 39.423h-14.277V0h14.703v32.815c0 4.157-.214 13.535-.214 16.303.961-1.916 3.411-5.646 5.223-8.415L-13.317 0Z" style="fill:#FFFFFF;fill-opacity:1;fill-rule:nonzero;stroke:none" transform="translate(245.944 37.321)"/><path d="M0 0v41.659h-14.917V-.214c0-11.932-5.859-19.284-15.344-19.284-9.48 0-15.234 7.563-15.234 19.498v41.659H-60.41V-.214c0-21.734 12.144-33.88 30.149-33.88C-11.294-34.094 0-21.629 0 0" style="fill:#FFFFFF;fill-opacity:1;fill-rule:nonzero;stroke:none" transform="translate(176.477 70.245)"/><path d="m0 0-4.576 8.165 3.751 4.647h-2.176l-3.79-4.74c-.422-.531-1.263-1.593-1.481-1.922.016.404.036 1.794.036 2.27v4.392h-1.868V0h1.868v3.696l2.377 2.876L-2.179 0Z" style="fill:#FFFFFF;fill-opacity:1;fill-rule:nonzero;stroke:none" transform="translate(314.708 12.241)"/><path d="m0 0-1.591 1.062C-2.251.019-3.074-.531-4.41-.531c-2.236 0-3.441 1.812-3.441 4.686 0 2.875 1.205 4.687 3.441 4.687 1.317 0 1.994-.494 2.653-1.538l1.702 1.062c-.877 1.554-2.27 2.397-4.355 2.397-3.313 0-5.419-2.728-5.419-6.608 0-3.879 2.106-6.607 5.419-6.607 1.939 0 3.496.88 4.41 2.452" style="fill:#FFFFFF;fill-opacity:1;fill-rule:nonzero;stroke:none" transform="translate(301.657 14.492)"/><path d="M288.826 25.054h-1.921V12.242h1.921z" style="fill:#FFFFFF;fill-opacity:1;fill-rule:nonzero;stroke:none"/><path d="M0 0h-1.867l-1.556-8.272c-.055-.312-.164-1.025-.258-1.499A18.917 18.917 0 0 1-3.99-8.29L-6.076 0h-1.647l-2.049-8.108a34.247 34.247 0 0 1-.349-1.663c-.056.417-.22 1.298-.294 1.679L-11.95 0h-1.942l2.616-12.812h1.905l2.085 8.273c.112.437.312 1.39.367 1.702.055-.312.255-1.265.367-1.702l1.994-8.273h1.942z" style="fill:#FFFFFF;fill-opacity:1;fill-rule:nonzero;stroke:none" transform="translate(284.05 25.054)"/><path d="M0 0c0 2.288-1.575 3.092-4.1 3.86-2.215.661-2.8 1.099-2.8 1.999 0 .857.64 1.591 2.142 1.591 1.262 0 2.176-.404 2.983-1.226l1.353 1.372c-1.135 1.098-2.452 1.738-4.191 1.738-2.361 0-4.229-1.354-4.229-3.568 0-2.288 1.301-2.965 4.01-3.772 2.143-.64 2.893-1.133 2.893-2.121 0-1.245-.862-1.869-2.655-1.869-1.208 0-2.47.585-3.332 1.522l-1.372-1.338c1.08-1.262 2.689-2.069 4.558-2.069C-1.465-3.881 0-2.306 0 0" style="fill:#FFFFFF;fill-opacity:1;fill-rule:nonzero;stroke:none" transform="translate(268.418 15.92)"/><path d="M0 0v12.812h-1.866V6.208c0-.716.018-2.546.018-3.022-.183.33-.734 1.28-1.062 1.812l-4.87 7.814h-1.958V0h1.867v6.643c0 .715-.019 2.49-.019 2.967.203-.331.641-1.099.953-1.575L-1.83 0Z" style="fill:#FFFFFF;fill-opacity:1;fill-rule:nonzero;stroke:none" transform="translate(256.32 12.241)"/><path d="M0 0v7.468h-1.921V-.037c0-2.344-.953-3.587-2.967-3.587-1.921 0-2.928 1.299-2.928 3.715v7.377h-1.921V.037c0-3.533 1.647-5.584 4.815-5.584C-1.739-5.547 0-3.587 0 0" style="fill:#FFFFFF;fill-opacity:1;fill-rule:nonzero;stroke:none" transform="translate(243.16 17.586)"/><path d="M0 0v4.118h3.735c1.299 0 2.177-.732 2.177-2.067C5.912.658 5.016 0 3.735 0Zm7.851 2.103c0 2.637-1.885 3.826-4.116 3.826h-5.62V-6.882H0v5.07h2.892l2.545-5.07H7.65L5.034-1.648C6.773-1.21 7.851.055 7.851 2.103" style="fill:#FFFFFF;fill-opacity:1;fill-rule:nonzero;stroke:none" transform="translate(222.697 19.123)"/><path d="M0 0h-3.423v4.245H.055c1.447 0 2.269-.804 2.269-2.121C2.324.861 1.702 0 0 0m-3.423 9.297H.018c1.281 0 1.775-.731 1.775-1.684 0-.841-.512-1.627-1.775-1.627h-3.441zm5.51-4.135c.933.458 1.63 1.262 1.63 2.561 0 2.162-1.447 3.334-3.68 3.334h-5.271V-1.757h5.088c2.801 0 4.392 1.338 4.392 3.935 0 1.776-1.151 2.71-2.159 2.984" style="fill:#FFFFFF;fill-opacity:1;fill-rule:nonzero;stroke:none" transform="translate(213.509 13.998)"/><path d="M0 0h-1.866l-1.557-8.272c-.055-.312-.164-1.025-.255-1.499a19.361 19.361 0 0 1-.31 1.481L-6.075 0h-1.648l-2.049-8.108a38.241 38.241 0 0 1-.349-1.663c-.056.417-.22 1.298-.294 1.679L-11.95 0h-1.942l2.619-12.812h1.902l2.085 8.273c.112.437.313 1.39.369 1.702.053-.312.256-1.265.365-1.702l1.994-8.273h1.942z" style="fill:#FFFFFF;fill-opacity:1;fill-rule:nonzero;stroke:none" transform="translate(201.941 25.054)"/><path d="M0 0v1.866h-6.609v4.045h3.681V7.78h-3.681v3.165h6.333v1.867H-8.53V0Z" style="fill:#FFFFFF;fill-opacity:1;fill-rule:nonzero;stroke:none" transform="translate(186 12.241)"/><path d="M0 0v12.812h-1.867V6.208c0-.716.019-2.546.019-3.022-.183.33-.734 1.28-1.062 1.812l-4.87 7.814h-1.958V0h1.866v6.643c0 .715-.015 2.49-.015 2.967.2-.331.638-1.099.95-1.575L-1.83 0Z" style="fill:#FFFFFF;fill-opacity:1;fill-rule:nonzero;stroke:none" transform="translate(173.958 12.241)"/><path d="M0 0v1.887h-8.254v-12.814h1.923v5.693h3.678v1.884h-3.678V0Z" style="fill:#FFFFFF;fill-opacity:1;fill-rule:nonzero;stroke:none" transform="translate(158.436 23.168)"/><path d="M0 0c-2.233 0-3.459 1.812-3.459 4.686 0 2.873 1.226 4.685 3.459 4.685 2.251 0 3.478-1.812 3.478-4.685C3.478 1.812 2.251 0 0 0m0 11.292c-3.313 0-5.417-2.728-5.417-6.606C-5.417.805-3.313-1.923 0-1.923c3.332 0 5.435 2.728 5.435 6.609 0 3.878-2.103 6.606-5.435 6.606" style="fill:#FFFFFF;fill-opacity:1;fill-rule:nonzero;stroke:none" transform="translate(141.835 13.961)"/><path d="M0 0h-2.215l-2.012-3.55a54.803 54.803 0 0 1-1.317-2.525 54.51 54.51 0 0 1-1.32 2.543L-8.858 0h-2.251l4.594-7.743v-5.069h1.921v5.069z" style="fill:#FFFFFF;fill-opacity:1;fill-rule:nonzero;stroke:none" transform="translate(132.317 25.054)"/><path d="M0 0v1.887h-9.389V0h3.733v-10.927h1.923V0z" style="fill:#FFFFFF;fill-opacity:1;fill-rule:nonzero;stroke:none" transform="translate(120.238 23.168)"/><path d="M108.141 25.054h-1.921V12.242h1.921z" style="fill:#FFFFFF;fill-opacity:1;fill-rule:nonzero;stroke:none"/><path d="M0 0c0 2.288-1.575 3.092-4.102 3.86C-6.315 4.521-6.9 4.959-6.9 5.859c0 .857.64 1.591 2.142 1.591 1.262 0 2.176-.404 2.983-1.226l1.354 1.372c-1.136 1.098-2.453 1.738-4.191 1.738-2.361 0-4.23-1.354-4.23-3.568 0-2.288 1.301-2.965 4.011-3.772 2.14-.64 2.892-1.133 2.892-2.121 0-1.245-.864-1.869-2.655-1.869-1.208 0-2.47.585-3.332 1.522L-9.3-1.812c1.08-1.262 2.691-2.069 4.56-2.069C-1.465-3.881 0-2.306 0 0" style="fill:#FFFFFF;fill-opacity:1;fill-rule:nonzero;stroke:none" transform="translate(103.07 15.92)"/><path d="M0 0v4.118h3.732c1.302 0 2.179-.732 2.179-2.067C5.911.658 5.016 0 3.732 0Zm7.851 2.103c0 2.637-1.885 3.826-4.119 3.826h-5.617V-6.882H0v5.07h2.892l2.545-5.07H7.65L5.034-1.648C6.772-1.21 7.851.055 7.851 2.103" style="fill:#FFFFFF;fill-opacity:1;fill-rule:nonzero;stroke:none" transform="translate(83.486 19.123)"/><path d="M0 0v1.866h-6.608v4.045h3.678V7.78h-3.678v3.165h6.333v1.867H-8.53V0Z" style="fill:#FFFFFF;fill-opacity:1;fill-rule:nonzero;stroke:none" transform="translate(78.691 12.241)"/><path d="M0 0h-2.051l-2.635-8.145c-.236-.749-.604-1.904-.713-2.36-.109.456-.476 1.59-.715 2.342L-8.785 0h-2.088l4.449-12.812h2.03z" style="fill:#FFFFFF;fill-opacity:1;fill-rule:nonzero;stroke:none" transform="translate(67.453 25.054)"/><path d="M54.146 25.054h-1.923V12.242h1.923z" style="fill:#FFFFFF;fill-opacity:1;fill-rule:nonzero;stroke:none"/><path d="M0 0v12.812h-1.866V6.208c0-.716.018-2.546.018-3.022A61.25 61.25 0 0 1-2.91 4.998l-4.87 7.814h-1.958V0h1.867v6.643c0 .715-.019 2.49-.019 2.967.203-.331.641-1.099.953-1.575L-1.832 0Z" style="fill:#FFFFFF;fill-opacity:1;fill-rule:nonzero;stroke:none" transform="translate(48.802 12.241)"/><path d="M0 0v7.468h-1.923V-.037c0-2.344-.951-3.587-2.965-3.587-1.921 0-2.926 1.299-2.926 3.715v7.377h-1.923V.037c0-3.533 1.647-5.584 4.815-5.584C-1.739-5.547 0-3.587 0 0" style="fill:#FFFFFF;fill-opacity:1;fill-rule:nonzero;stroke:none" transform="translate(35.642 17.586)"/><path d="M0 0c1.331-2.573 9.229-17.657-1.24-42.63-7.399-17.639-25.685-24.61-25.685-24.61-6.902-1.754-29.235-10.949-30.32-11.465-.547-.255-.859.399-.259.755 5.603 3.336 31.229 14.527 41.7 34.426 13.263 25.213.606 50.728.606 50.728C-10.528 5.392-4.945 2.614-.15.531c20.928-9.199 40.868-23.078 35.276-55.364-2.481-14.321-10.738-24.218-10.738-24.218-1.969 8.238-20.963 13.557-36.55 13.735 1.46.316 3.792.542 4.961.581 17.832.542 20.131-1.199 20.131-1.199s9.12 9.006 9.366 28.723C22.583-14.343 3.742-2.078 0 0" style="fill:#ef3e42;fill-opacity:1;fill-rule:nonzero;stroke:none" transform="translate(67.884 124.758)"/><path d="M0 0c0 1.792-1.142 3.115-3.396 3.115-.886 0-1.579-.198-2.128-.508l.198 2.493h4.734v1.411h-6.057l-.338-4.82 1.577-.62c.508.381 1.071.62 1.901.62 1.226 0 2.003-.592 2.003-1.759 0-1.256-.805-2.003-2.341-2.003-.886 0-1.93.296-2.761.761l-.718-1.224c1.057-.677 2.183-.973 3.436-.973C-1.606-3.507 0-2.409 0 0" style="fill:#FFFFFF;fill-opacity:1;fill-rule:nonzero;stroke:none" transform="translate(85.68 40.664)"/><path d="M0 0c-1.522 0-2.381.661-2.381 1.705 0 1 .788 1.62 2.367 1.62 1.648 0 2.395-.65 2.395-1.691C2.381.677 1.577 0 0 0m-.014 7.465c1.436 0 1.972-.704 1.972-1.449 0-.72-.677-1.297-1.944-1.297-1.226 0-1.974.563-1.974 1.352 0 .747.508 1.394 1.946 1.394m2.14-3.338c1.014.408 1.324 1.351 1.324 1.93 0 1.903-1.675 2.762-3.436 2.762-1.931 0-3.467-.889-3.467-2.789 0-.593.31-1.482 1.325-1.903-1.142-.422-1.748-1.27-1.748-2.45 0-1.944 1.467-3.031 3.849-3.031 2.379 0 3.901 1.087 3.901 3.031 0 1.267-.69 2.055-1.748 2.45" style="fill:#FFFFFF;fill-opacity:1;fill-rule:nonzero;stroke:none" transform="translate(72.803 38.51)"/><path d="M0 0v1.495h-6.889V.057h5.17c-1.845-2.382-3.001-5.03-3.055-8.425h1.492A12.833 12.833 0 0 0 0 0" style="fill:#FFFFFF;fill-opacity:1;fill-rule:nonzero;stroke:none" transform="translate(67.787 45.679)"/><path d="M0 0v9.863h-1.196C-1.378 8.99-2.21 8.65-3.227 8.58V7.552h1.748V0z" style="fill:#FFFFFF;fill-opacity:1;fill-rule:nonzero;stroke:none" transform="translate(58.953 37.311)"/><path d="M0 0c0 .567-.479 1.06-1.048 1.06-.57 0-1.046-.493-1.046-1.06 0-.572.476-1.048 1.046-1.048C-.479-1.048 0-.572 0 0" style="fill:#FFFFFF;fill-opacity:1;fill-rule:nonzero;stroke:none" transform="translate(51.02 38.214)"/><path d="M0 0v1.452h-7.229V0h2.876v-8.411h1.479V0Z" style="fill:#FFFFFF;fill-opacity:1;fill-rule:nonzero;stroke:none" transform="translate(49.39 45.721)"/><path d="M0 0c0 1.761-1.212 2.381-3.156 2.971-1.705.508-2.156.848-2.156 1.536 0 .663.492 1.226 1.647 1.226.974 0 1.678-.31 2.297-.943l1.044 1.057c-.875.843-1.887 1.338-3.227 1.338-1.818 0-3.254-1.041-3.254-2.748 0-1.76 1-2.281 3.086-2.901 1.647-.495 2.226-.873 2.226-1.637 0-.954-.663-1.435-2.044-1.435-.93 0-1.9.451-2.564 1.169l-1.057-1.028c.832-.973 2.072-1.593 3.509-1.593C-1.128-2.988 0-1.775 0 0" style="fill:#FFFFFF;fill-opacity:1;fill-rule:nonzero;stroke:none" transform="translate(40.992 40.143)"/><path d="M0 0v1.436h-5.086v3.115h2.833v1.438h-2.833v2.436h4.874v1.438h-6.353V0Z" style="fill:#FFFFFF;fill-opacity:1;fill-rule:nonzero;stroke:none" transform="translate(32.494 37.311)"/></g></svg>